<svg width="108" height="18" viewBox="0 0 108 18" fill="none" xmlns="http://www.w3.org/2000/svg">
<g clip-path="url(#clip0_211_1050)">
<path d="M36.448 15.734C35.818 15.734 35.458 15.32 35.458 14.582V4.466C35.458 3.314 36.25 2.666 37.168 2.666C38.104 2.666 38.608 3.134 39.13 4.016L44.386 13.016C44.35 12.476 44.35 11.864 44.35 11.27V3.818C44.35 3.08 44.728 2.666 45.358 2.666C45.988 2.666 46.348 3.08 46.348 3.818V14.114C46.348 15.158 45.664 15.734 44.836 15.734C44.008 15.734 43.558 15.32 43.09 14.528L37.42 4.844C37.456 5.474 37.456 5.96 37.456 6.5V14.582C37.456 15.32 37.078 15.734 36.448 15.734ZM51.8698 15.788C49.2958 15.788 47.4778 13.988 47.4778 11.144C47.4778 8.354 49.2958 6.482 51.8698 6.482C54.4258 6.482 56.2618 8.354 56.2618 11.144C56.2618 13.988 54.4258 15.788 51.8698 15.788ZM49.4038 11.144C49.4038 13.088 50.3578 14.33 51.8698 14.33C53.3818 14.33 54.3358 13.088 54.3358 11.144C54.3358 9.164 53.3458 7.958 51.8698 7.958C50.3938 7.958 49.4038 9.164 49.4038 11.144ZM60.7017 15.644C59.0457 15.644 58.0557 14.78 58.0557 12.89V8.282H56.9037C56.3457 8.282 56.0217 7.994 56.0217 7.508C56.0217 7.04 56.3457 6.77 56.9037 6.77H58.0557V4.61C58.0557 3.926 58.3977 3.53 58.9917 3.53C59.5677 3.53 59.9277 3.926 59.9277 4.61V6.77H61.2417C61.7997 6.77 62.1237 7.04 62.1237 7.508C62.1237 7.994 61.7997 8.282 61.2417 8.282H59.9277V12.764C59.9277 13.574 60.3957 14.096 61.0257 14.06C61.1517 14.042 61.2237 14.06 61.3137 14.078C61.7637 14.114 61.9617 14.402 61.9617 14.798C61.9617 15.104 61.8177 15.338 61.5117 15.482C61.3137 15.59 61.0437 15.644 60.7017 15.644ZM66.5221 15.788C63.9121 15.788 62.1841 14.132 62.1841 11.108C62.1841 8.39 63.9841 6.482 66.4321 6.482C69.2581 6.482 70.3201 8.534 70.5001 10.19C70.6441 11.342 70.2121 11.54 69.4741 11.54H64.0741C64.1101 13.232 65.1181 14.33 66.5401 14.33C67.4041 14.33 68.1601 13.97 68.4841 13.178C68.6821 12.746 68.9521 12.476 69.4021 12.476C70.0861 12.476 70.5361 13.124 70.0321 14.042C69.5461 14.978 68.3401 15.788 66.5221 15.788ZM64.0921 10.208H68.6101C68.6101 8.84 67.7821 7.904 66.4321 7.904C65.1181 7.904 64.2181 8.894 64.0921 10.208ZM74.9857 15.644C73.3297 15.644 72.3397 14.78 72.3397 12.89V8.282H71.1877C70.6297 8.282 70.3057 7.994 70.3057 7.508C70.3057 7.04 70.6297 6.77 71.1877 6.77H72.3397V4.61C72.3397 3.926 72.6817 3.53 73.2757 3.53C73.8517 3.53 74.2117 3.926 74.2117 4.61V6.77H75.5257C76.0837 6.77 76.4077 7.04 76.4077 7.508C76.4077 7.994 76.0837 8.282 75.5257 8.282H74.2117V12.764C74.2117 13.574 74.6797 14.096 75.3097 14.06C75.4357 14.042 75.5077 14.06 75.5977 14.078C76.0477 14.114 76.2457 14.402 76.2457 14.798C76.2457 15.104 76.1017 15.338 75.7957 15.482C75.5977 15.59 75.3277 15.644 74.9857 15.644ZM79.5967 15.788C78.0127 15.788 76.5907 14.78 76.5907 13.106C76.5907 11.27 78.0307 10.532 79.7407 10.298L81.3067 10.064C81.9907 9.974 82.2247 9.722 82.2247 9.236C82.2247 8.462 81.6127 7.904 80.6407 7.904C79.6867 7.904 79.0747 8.3 78.8227 9.02C78.6787 9.47 78.3727 9.776 77.8867 9.776C77.2027 9.776 76.7167 9.146 77.2027 8.228C77.7427 7.184 78.9307 6.482 80.5147 6.482C82.9267 6.482 84.0787 7.832 84.0787 10.064V14.69C84.0787 15.356 83.7547 15.734 83.1967 15.734C82.6387 15.734 82.3147 15.356 82.3147 14.798C82.3147 14.618 82.3327 14.474 82.3687 14.312C81.9187 15.194 81.0007 15.788 79.5967 15.788ZM78.5167 13.052C78.5167 13.898 79.1827 14.384 80.0107 14.384C81.2887 14.384 82.2607 13.484 82.2607 12.152V11.036C82.1167 11.216 81.7927 11.324 81.2707 11.414L80.2807 11.612C79.2547 11.81 78.5167 12.206 78.5167 13.052ZM86.4651 15.734C85.8891 15.734 85.5291 15.338 85.5291 14.654V3.746C85.5291 3.044 85.8891 2.666 86.4651 2.666C87.0591 2.666 87.4011 3.044 87.4011 3.746V10.352C87.5991 10.1 87.8511 9.848 88.0671 9.614L90.6951 6.878C91.0011 6.554 91.3611 6.482 91.6491 6.626C92.0991 6.77 92.5671 7.4 91.9011 8.084L89.4891 10.496L92.4051 14.042C93.0711 14.87 92.5491 15.482 92.0451 15.626C91.6851 15.788 91.2711 15.662 90.9291 15.23L88.2291 11.738L87.4011 12.566V14.654C87.4011 15.338 87.0591 15.734 86.4651 15.734ZM96.9533 15.788C94.3433 15.788 92.6153 14.132 92.6153 11.108C92.6153 8.39 94.4153 6.482 96.8633 6.482C99.6893 6.482 100.751 8.534 100.931 10.19C101.075 11.342 100.643 11.54 99.9053 11.54H94.5053C94.5413 13.232 95.5493 14.33 96.9713 14.33C97.8353 14.33 98.5913 13.97 98.9153 13.178C99.1133 12.746 99.3833 12.476 99.8333 12.476C100.517 12.476 100.967 13.124 100.463 14.042C99.9773 14.978 98.7713 15.788 96.9533 15.788ZM94.5233 10.208H99.0413C99.0413 8.84 98.2133 7.904 96.8633 7.904C95.5493 7.904 94.6493 8.894 94.5233 10.208ZM102.876 15.734C102.3 15.734 101.94 15.338 101.94 14.654V7.616C101.94 6.914 102.3 6.536 102.876 6.536C103.47 6.536 103.812 6.914 103.812 7.616C103.812 7.868 103.812 8.084 103.776 8.282C104.226 7.292 105.126 6.536 106.062 6.536C106.314 6.536 106.548 6.608 106.728 6.734C106.926 6.878 107.052 7.112 107.052 7.4C107.052 7.724 106.944 7.958 106.764 8.102C106.602 8.228 106.386 8.3 106.116 8.3C104.802 8.336 103.812 9.092 103.812 11.018V14.654C103.812 15.338 103.47 15.734 102.876 15.734Z" fill="#F5F5F4" style="fill:#F5F5F4;fill:color(display-p3 0.9608 0.9608 0.9569);fill-opacity:1;"/>
<rect width="29.5" height="18" rx="4" fill="url(#paint0_linear_211_1050)"/>
<path d="M11.5 3.58586C11.5 3.71847 11.5527 3.84565 11.6464 3.93942L12.0606 4.35355C12.1544 4.44732 12.2815 4.5 12.4141 4.5H13.5C13.7761 4.5 14 4.72386 14 5V13C14 13.2761 13.7761 13.5 13.5 13.5H12.4141C12.2815 13.5 12.1544 13.5527 12.0606 13.6464L11.6464 14.0606C11.5527 14.1544 11.5 14.2815 11.5 14.4141V15.5C11.5 15.7761 11.2761 16 11 16H5C4.72386 16 4.5 15.7761 4.5 15.5V14.4141C4.5 14.2815 4.44732 14.1544 4.35355 14.0606L3.93942 13.6464C3.84565 13.5527 3.71847 13.5 3.58586 13.5H2.5C2.22386 13.5 2 13.2761 2 13V5C2 4.72386 2.22386 4.5 2.5 4.5H3.58586C3.71847 4.5 3.84565 4.44732 3.93942 4.35355L4.35355 3.93942C4.44732 3.84565 4.5 3.71847 4.5 3.58586V2.5C4.5 2.22386 4.72386 2 5 2H11C11.2761 2 11.5 2.22386 11.5 2.5V3.58586ZM4.64645 5.06058C4.55268 5.15435 4.5 5.28153 4.5 5.41414V12.5859C4.5 12.7185 4.55268 12.8456 4.64645 12.9394L5.06058 13.3536C5.15435 13.4473 5.28153 13.5 5.41414 13.5H10.5859C10.7185 13.5 10.8456 13.4473 10.9394 13.3536L11.3536 12.9394C11.4473 12.8456 11.5 12.7185 11.5 12.5859V5.41414C11.5 5.28153 11.4473 5.15435 11.3536 5.06058L10.9394 4.64645C10.8456 4.55268 10.7185 4.5 10.5859 4.5H5.41414C5.28153 4.5 5.15435 4.55268 5.06058 4.64645L4.64645 5.06058Z" fill="#F5F5F4" style="fill:#F5F5F4;fill:color(display-p3 0.9608 0.9608 0.9569);fill-opacity:1;"/>
<path d="M25 3.58586C25 3.71847 25.0527 3.84565 25.1464 3.93942L25.5606 4.35355C25.6544 4.44732 25.7815 4.5 25.9141 4.5H27C27.2761 4.5 27.5 4.72386 27.5 5V6.5C27.5 6.77614 27.2761 7 27 7H25.5C25.2239 7 25 6.77614 25 6.5V5.41414C25 5.28153 24.9473 5.15435 24.8536 5.06058L24.4394 4.64645C24.3456 4.55268 24.2185 4.5 24.0859 4.5H18.9141C18.7815 4.5 18.6544 4.55268 18.5606 4.64645L18.1464 5.06058C18.0527 5.15435 18 5.28153 18 5.41414V6.83586C18 6.96847 18.0527 7.09565 18.1464 7.18942L18.5606 7.60355C18.6544 7.69732 18.7815 7.75 18.9141 7.75H24.5C24.7761 7.75 25 7.97386 25 8.25V9.33586C25 9.46847 25.0527 9.59565 25.1464 9.68942L25.5606 10.1036C25.6544 10.1973 25.7815 10.25 25.9141 10.25H27C27.2761 10.25 27.5 10.4739 27.5 10.75V13C27.5 13.2761 27.2761 13.5 27 13.5H25.9141C25.7815 13.5 25.6544 13.5527 25.5606 13.6464L25.1464 14.0606C25.0527 14.1544 25 14.2815 25 14.4141V15.5C25 15.7761 24.7761 16 24.5 16H18.5C18.2239 16 18 15.7761 18 15.5V14.4141C18 14.2815 17.9473 14.1544 17.8536 14.0606L17.4394 13.6464C17.3456 13.5527 17.2185 13.5 17.0859 13.5H16C15.7239 13.5 15.5 13.2761 15.5 13V11.5C15.5 11.2239 15.7239 11 16 11H17.5C17.7761 11 18 11.2239 18 11.5V12.5859C18 12.7185 18.0527 12.8456 18.1464 12.9394L18.5606 13.3536C18.6544 13.4473 18.7815 13.5 18.9141 13.5H24.0859C24.2185 13.5 24.3456 13.4473 24.4394 13.3536L24.8536 12.9394C24.9473 12.8456 25 12.7185 25 12.5859V11.1641C25 11.0315 24.9473 10.9044 24.8536 10.8106L24.4394 10.3964C24.3456 10.3027 24.2185 10.25 24.0859 10.25H18.5C18.2239 10.25 18 10.0261 18 9.75V8.66414C18 8.53153 17.9473 8.40435 17.8536 8.31058L17.4394 7.89645C17.3456 7.80268 17.2185 7.75 17.0859 7.75H16C15.7239 7.75 15.5 7.52614 15.5 7.25V5C15.5 4.72386 15.7239 4.5 16 4.5H17.0859C17.2185 4.5 17.3456 4.44732 17.4394 4.35355L17.8536 3.93942C17.9473 3.84565 18 3.71847 18 3.58586V2.5C18 2.22386 18.2239 2 18.5 2H24.5C24.7761 2 25 2.22386 25 2.5V3.58586Z" fill="#F5F5F4" style="fill:#F5F5F4;fill:color(display-p3 0.9608 0.9608 0.9569);fill-opacity:1;"/>
</g>
<defs>
<linearGradient id="paint0_linear_211_1050" x1="14.75" y1="0" x2="14.75" y2="18" gradientUnits="userSpaceOnUse">
<stop stop-color="#44403C" style="stop-color:#44403C;stop-color:color(display-p3 0.2667 0.2510 0.2353);stop-opacity:1;"/>
<stop offset="1" stop-color="#292524" style="stop-color:#292524;stop-color:color(display-p3 0.1608 0.1451 0.1412);stop-opacity:1;"/>
</linearGradient>
<clipPath id="clip0_211_1050">
<rect width="108" height="18" fill="white" style="fill:white;fill-opacity:1;"/>
</clipPath>
</defs>
</svg>
